<?xml version="1.0"?>
<svg xmlns="http://www.w3.org/2000/svg" xmlns:xlink="http://www.w3.org/1999/xlink" version="1.1" id="Capa_1" x="0px" y="0px" viewBox="0 0 512 512" style="enable-background:new 0 0 512 512;" xml:space="preserve" width="512px" height="512px" class=""><g><g>
	<g>
		<g>
			<path d="M396.523,404.991l-113.137-69.999c-9.392-5.811-21.72-2.91-27.531,6.485c-5.812,9.393-2.908,21.719,6.484,27.53     l53.323,32.992H80c-22.056,0-40-17.944-40-40V106.002c0-11.046-8.954-20-20-20s-20,8.954-20,20v255.997     c0,44.112,35.888,79.999,80,79.999h235.663L262.34,474.99c-9.393,5.811-12.296,18.138-6.484,27.53     c5.84,9.439,18.177,12.271,27.531,6.485l113.137-69.999C409.249,431.135,409.026,412.725,396.523,404.991z" data-original="#000000" class="active-path" data-old_color="#ffffff" fill="#ffffff"/>
			<path d="M432,70.002H196.337L249.66,37.01c9.392-5.811,12.296-18.137,6.484-27.53c-5.812-9.395-18.138-12.296-27.531-6.485     l-113.136,70c-12.564,7.771-12.662,26.183,0,34.015l113.136,69.998c9.355,5.788,21.695,2.948,27.531-6.485     c5.812-9.392,2.909-21.719-6.484-27.53l-53.323-32.992H432c22.056,0,40,17.944,40,40v255.997c0,11.046,8.954,20,20,20     c11.046,0,20-8.954,20-20V150.001C512,105.89,476.112,70.002,432,70.002z" data-original="#000000" class="active-path" data-old_color="#ffffff" fill="#ffffff"/>
		</g>
	</g>
</g></g> </svg>
